<svg width="18" height="18" viewBox="0 0 18 18" fill="none" xmlns="http://www.w3.org/2000/svg">
<path d="M9 1.622C11.403 1.622 11.688 1.631 12.637 1.674C13.514 1.714 13.991 1.861 14.308 1.984C14.728 2.147 15.028 2.342 15.343 2.657C15.658 2.972 15.853 3.272 16.016 3.692C16.139 4.009 16.286 4.486 16.326 5.363C16.369 6.312 16.378 6.597 16.378 9C16.378 11.403 16.369 11.688 16.326 12.637C16.286 13.514 16.139 13.991 16.016 14.308C15.853 14.728 15.658 15.028 15.343 15.343C15.028 15.658 14.728 15.853 14.308 16.016C13.991 16.139 13.514 16.286 12.637 16.326C11.688 16.369 11.404 16.378 9 16.378C6.596 16.378 6.312 16.369 5.363 16.326C4.486 16.286 4.009 16.139 3.692 16.016C3.272 15.853 2.972 15.658 2.657 15.343C2.342 15.028 2.147 14.728 1.984 14.308C1.861 13.991 1.714 13.514 1.674 12.637C1.631 11.688 1.622 11.403 1.622 9C1.622 6.597 1.631 6.312 1.674 5.363C1.714 4.486 1.861 4.009 1.984 3.692C2.147 3.272 2.342 2.972 2.657 2.657C2.972 2.342 3.272 2.147 3.692 1.984C4.009 1.861 4.486 1.714 5.363 1.674C6.312 1.631 6.597 1.622 9 1.622ZM9 0C6.556 0 6.249 0.0099999 5.289 0.0539999C4.331 0.0979999 3.677 0.25 3.105 0.472C2.513 0.702 2.011 1.01 1.511 1.511C1.011 2.011 0.703 2.513 0.473 3.105C0.25 3.677 0.0979999 4.331 0.0539999 5.289C0.0099999 6.249 0 6.556 0 9C0 11.444 0.0099999 11.751 0.0539999 12.711C0.0979999 13.669 0.25 14.323 0.472 14.896C0.702 15.488 1.01 15.99 1.51 16.49C2.01 16.99 2.512 17.298 3.104 17.528C3.676 17.75 4.331 17.903 5.289 17.946C6.249 17.99 6.556 18 9 18C11.444 18 11.751 17.99 12.711 17.946C13.669 17.902 14.323 17.75 14.896 17.528C15.488 17.298 15.99 16.99 16.49 16.49C16.99 15.99 17.298 15.488 17.528 14.896C17.75 14.324 17.903 13.669 17.946 12.711C17.99 11.751 18 11.444 18 9C18 6.556 17.99 6.249 17.946 5.289C17.902 4.331 17.75 3.677 17.528 3.104C17.298 2.512 16.99 2.01 16.49 1.51C15.99 1.01 15.488 0.702 14.896 0.472C14.324 0.25 13.669 0.0969999 12.711 0.0539999C11.751 0.0099999 11.444 0 9 0ZM9 4.378C6.448 4.378 4.378 6.447 4.378 9C4.378 11.553 6.448 13.622 9 13.622C11.552 13.622 13.622 11.553 13.622 9C13.622 6.447 11.552 4.378 9 4.378ZM9 12C7.343 12 6 10.657 6 9C6 7.343 7.343 6 9 6C10.657 6 12 7.343 12 9C12 10.657 10.657 12 9 12ZM13.804 3.116C13.208 3.116 12.724 3.6 12.724 4.196C12.724 4.792 13.208 5.276 13.804 5.276C14.4 5.276 14.884 4.792 14.884 4.196C14.884 3.6 14.401 3.116 13.804 3.116Z" fill="white"/>
</svg>
