<svg width="18" height="18" viewBox="0 0 18 18" fill="none" xmlns="http://www.w3.org/2000/svg">
<path d="M16.7 0H1.3C0.582 0 0 0.582 0 1.3V16.7C0 17.418 0.582 18 1.3 18H16.7C17.418 18 18 17.418 18 16.7V1.3C18 0.582 17.418 0 16.7 0ZM5.339 15.338H2.667V6.748H5.339V15.338ZM4.004 5.574C3.147 5.574 2.455 4.88 2.455 4.026C2.455 3.171 3.146 2.478 4.004 2.478C4.858 2.478 5.551 3.172 5.551 4.026C5.551 4.881 4.858 5.574 4.004 5.574ZM15.339 15.338H12.67V11.161C12.67 10.165 12.653 8.883 11.283 8.883C9.894 8.883 9.682 9.969 9.682 11.089V15.338H7.015V6.748H9.574V7.922H9.611C9.967 7.247 10.838 6.535 12.137 6.535C14.84 6.535 15.34 8.314 15.34 10.627L15.339 15.338Z" fill="white"/>
</svg>
